<svg id="Layer_1" data-name="Layer 1" xmlns="http://www.w3.org/2000/svg" viewBox="0 0 180.44 121.17"><defs><style>.cls-1{fill:#ecc061;}.cls-2{fill:#67ad82;}.cls-3,.cls-4{fill:none;stroke-miterlimit:10;}.cls-3{stroke:#ecc061;}.cls-4{stroke:#67ad82;}</style></defs><path class="cls-1" d="M64.9,83.2a6.87,6.87,0,0,1-6.54,4.6,7.45,7.45,0,0,1-2.72-.5,9,9,0,0,1-3.79-2.93l2.84-2.22a5.17,5.17,0,0,0,2.25,1.79,3.46,3.46,0,0,0,2.1.18,3,3,0,0,0,2.41-1.91,2.67,2.67,0,0,0-1.05-2.59c-1-1-2.69-2.59-2.81-2.72l-2.81-2.65A6.62,6.62,0,0,1,53,71.5,4.87,4.87,0,0,1,53,68.6,5.18,5.18,0,0,1,54.66,66a5.86,5.86,0,0,1,2.74-1.3,6,6,0,0,1,3.4.25,7.74,7.74,0,0,1,3.12,2.31l-2.81,2.25a3,3,0,0,0-3-1.29,2.08,2.08,0,0,0-1.66,1.33c-.13.43-.1,1.14.86,2.06l3.83,3.68c.55.55,1.23,1.2,1.73,1.66a7,7,0,0,1,2,3A5.41,5.41,0,0,1,64.9,83.2Z"/><path class="cls-1" d="M88.4,88.82,82.35,75l-5.68,13.8L66.17,64.89h4L76.58,80l3.79-9.51,1.85-4.72,2,4.66L88.31,80l6-15.1h3.92Z"/><path class="cls-1" d="M108.53,82.89h-8.15L98.44,87.8h-4l10-24,9.94,24h-3.92Zm-1.3-3.21-2.77-7-2.78,7Z"/><path class="cls-1" d="M120.6,64.89h3.77a7.4,7.4,0,0,1,5.71,2.26,8.55,8.55,0,0,1,0,10.62,7.29,7.29,0,0,1-5.71,2.28h-3.21V87.8h-3.58V64.89Zm8.12,7.57a4.66,4.66,0,0,0-1-3.12,4.34,4.34,0,0,0-3.33-1.24h-3.21v8.71h3.21a4.32,4.32,0,0,0,3.33-1.2A4.72,4.72,0,0,0,128.72,72.46Z"/><path class="cls-2" d="M57.89,43.37H68.41v4.07H57.89v13h-4.5V31.65H70.7v4H57.89Z"/><path class="cls-2" d="M87.65,54.27H77.41L75,60.44H70L82.53,30.33,95,60.44H90.1Zm-1.63-4-3.49-8.77L79,50.23Z"/><path class="cls-2" d="M99,60.44V31.65h4.5V60.44Z"/><path class="cls-2" d="M129.64,60.44h-5.09L117.3,50.7H114v9.74h-4.5V31.65H118a9.13,9.13,0,0,1,7.17,2.87,9.74,9.74,0,0,1,2.33,6.67,9.72,9.72,0,0,1-2.33,6.64A8,8,0,0,1,121.88,50ZM118,46.66a5.29,5.29,0,0,0,4.15-1.55,5.74,5.74,0,0,0,1.28-3.92,5.77,5.77,0,0,0-1.28-3.95A5.28,5.28,0,0,0,118,35.72h-4V46.66Z"/><path class="cls-3" d="M137.65,43.16a27.27,27.27,0,0,1,2.71,34.61"/><polygon class="cls-1" points="137.75 45.8 137.83 43.4 140.23 43.48 139.25 42.43 136.85 42.35 136.77 44.75 137.75 45.8"/><polygon class="cls-1" points="140.61 77.6 140.3 79.82 138.83 81.63 138.64 79.81 136.83 80 138.3 78.19 140.41 77.43 140.61 77.6"/><path class="cls-4" d="M137.3,50.15a20.36,20.36,0,0,1-1.07,25"/><polygon class="cls-2" points="137.58 50.3 137.22 48.09 135.71 46.31 135.56 48.13 133.74 47.98 135.25 49.76 137.37 50.47 137.58 50.3"/><polygon class="cls-2" points="136.25 72.54 136.41 74.93 138.8 74.77 137.85 75.85 135.46 76.02 135.3 73.62 136.25 72.54"/><path class="cls-4" d="M42.78,80a27.27,27.27,0,0,1-2.7-34.61"/><polygon class="cls-2" points="42.69 77.36 42.61 79.76 40.21 79.68 41.19 80.73 43.59 80.81 43.67 78.42 42.69 77.36"/><polygon class="cls-2" points="39.83 45.56 40.14 43.35 41.61 41.54 41.8 43.35 43.61 43.16 42.14 44.97 40.03 45.73 39.83 45.56"/><path class="cls-3" d="M43.14,73a20.36,20.36,0,0,1,1.07-25"/><polygon class="cls-1" points="42.86 72.86 43.22 75.07 44.73 76.85 44.88 75.03 46.7 75.18 45.19 73.4 43.06 72.69 42.86 72.86"/><polygon class="cls-1" points="44.19 50.62 44.03 48.23 41.64 48.4 42.58 47.31 44.98 47.15 45.14 49.54 44.19 50.62"/></svg>