<svg id="Layer_1" data-name="Layer 1" xmlns="http://www.w3.org/2000/svg" viewBox="0 0 600 342"><defs><style>.cls-1{fill:#e8a328;}.cls-2{fill:#26a57b;}.cls-3,.cls-5{fill:none;stroke-miterlimit:10;stroke-width:4px;}.cls-3{stroke:#ebbf61;}.cls-4{fill:#ebbf61;}.cls-5{stroke:#26a57b;}</style></defs><path class="cls-1" d="M206.43,277.54c-3.15,10.8-12.9,19.35-25.05,21.75a34.23,34.23,0,0,1-6.75.6,36.09,36.09,0,0,1-13.2-2.4A44,44,0,0,1,143,283.24l13.8-10.8a24.82,24.82,0,0,0,10.95,8.7,17.1,17.1,0,0,0,10.2.9c5.7-1.05,10.35-4.8,11.7-9.3,1.5-5.1-1.95-9.6-5.1-12.6-4.95-4.65-13.05-12.6-13.65-13.2L157.23,234a31.74,31.74,0,0,1-8.55-13.34,23.91,23.91,0,0,1-.3-14.1,25.37,25.37,0,0,1,8.25-12.45,29,29,0,0,1,13.35-6.3,29.62,29.62,0,0,1,16.5,1.2,37.51,37.51,0,0,1,15.15,11.25L188,211.25c-5.7-6.9-11.55-6.9-14.7-6.3-3.9.75-7.2,3.3-8.1,6.45-.6,2.1-.45,5.55,4.2,10L188,239.29c2.7,2.71,6,5.85,8.4,8.1a33.32,33.32,0,0,1,9.75,14.55A26.36,26.36,0,0,1,206.43,277.54Z"/><path class="cls-1" d="M320.58,304.84l-29.4-67-27.6,67-51-116.24h19.2l31.34,73.34,18.45-46.19,9-22.95,9.75,22.65,19.8,46.49,29.25-73.34h19.05Z"/><path class="cls-1" d="M418.38,276H378.79l-9.45,23.85h-19.2L398.58,183.5l48.3,116.39H427.83Zm-6.3-15.6-13.5-33.89-13.5,33.89Z"/><path class="cls-1" d="M477,188.6h18.3c14.7,0,23.25,6,27.75,11,6,6.6,9,15.45,9,25.8s-3,19.35-9,25.79c-4.5,5.1-13.05,11.1-27.75,11.1h-15.6v37.65h-17.4V188.6Zm39.45,36.75c0-4.35-.9-10.65-5-15.15-3.6-3.9-9-6-16.2-6h-15.6v42.3h15.6q10.8,0,16.2-5.86C515.58,236.15,516.48,229.85,516.48,225.35Z"/><path class="cls-2" d="M164.89,102.26h40.65V118H164.89v50.25h-17.4V57h66.9v15.6h-49.5Z"/><path class="cls-2" d="M279.94,144.41h-39.6l-9.45,23.85h-19.2L260.14,51.87l48.3,116.39H289.39Zm-6.3-15.6-13.5-33.9-13.5,33.9Z"/><path class="cls-2" d="M323.89,168.26V57h17.4V168.26Z"/><path class="cls-2" d="M442.23,168.26H422.58l-28-37.65H381.79v37.65h-17.4V57h33c14.7,0,23.25,6,27.75,11.1,5.85,6.45,9,15.45,9,25.79s-3.15,19.2-9,25.65a31.15,31.15,0,0,1-12.9,8.55ZM397.38,115c7.2,0,12.6-2.1,16.05-6,4.2-4.5,4.95-10.8,4.95-15.15,0-4.5-.75-10.79-4.95-15.29-3.45-3.9-8.85-5.85-16.05-5.85H381.79V115Z"/><path class="cls-3" d="M467.64,79.15c27.79,15.48,42.45,45.25,37.3,72.84"/><polygon class="cls-4" points="471.51 88.89 468.67 79.72 477.83 76.89 472.74 74.2 463.58 77.04 466.42 86.2 471.51 88.89"/><polygon class="cls-4" points="505.7 150.98 507.76 159.7 504.91 168.58 501.58 162.09 495.09 165.42 497.94 156.54 504.69 150.66 505.7 150.98"/><path class="cls-5" d="M467.86,100.51c16.13,14.1,22.81,35.68,15.93,54.59"/><polygon class="cls-2" points="469.07 100.84 465.29 92.72 457.55 87.52 458.95 94.68 451.79 96.08 459.53 101.28 468.48 101.72 469.07 100.84"/><polygon class="cls-2" points="480.6 145.13 484.23 154.01 493.11 150.37 490.88 155.69 482.01 159.32 478.37 150.44 480.6 145.13"/><path class="cls-5" d="M113.05,263.22C83,236.06,76.91,191,97.11,155.08"/><polygon class="cls-2" points="111.45 252.88 112.16 262.44 102.59 263.15 106.96 266.91 116.52 266.2 115.81 256.63 111.45 252.88"/><polygon class="cls-2" points="96.09 155.81 96.52 146.87 101.72 139.13 103.13 146.28 110.28 144.88 105.09 152.62 96.97 156.41 96.09 155.81"/><path class="cls-3" d="M116,238.49c-16.49-22.29-16.87-54,.28-78.15"/><polygon class="cls-4" points="114.83 237.92 116.73 246.68 123.14 253.46 123.35 246.16 130.64 246.37 124.24 239.59 115.61 237.19 114.83 237.92"/><polygon class="cls-4" points="116.9 170.8 115.54 161.3 106.05 162.67 109.5 158.06 118.99 156.7 120.36 166.19 116.9 170.8"/></svg>